<?xml version="1.0" encoding="utf-8"?>
<!-- Generator: Adobe Illustrator 21.1.0, SVG Export Plug-In . SVG Version: 6.00 Build 0)  -->
<svg version="1.1" id="Layer_1" xmlns="http://www.w3.org/2000/svg" xmlns:xlink="http://www.w3.org/1999/xlink" x="0px" y="0px"
	 viewBox="0 0 1024 1016.7" style="enable-background:new 0 0 1024 1016.7;" xml:space="preserve">
<style type="text/css">
	.st0{fill:#FFFFFF;}
</style>
<g>
	<path class="st0" d="M777.1,507.3c0-70.7-27.6-137.1-77.7-187c-50-49.9-116.5-77.4-187.1-77.4c-146.1,0-264.9,118.7-264.9,264.5
		c0,53.2,16,104.6,46.3,148.8c24,35.1,55.6,63.6,92.3,83.7v129.4c0,41.7,34,75.6,75.8,75.6h100.4c19.9,0,38.9-7.6,53.4-21.5
		c14.9-14.2,23.4-33.9,23.4-54.1V739.8c36.7-20.1,68.2-48.7,92.1-83.8C761.2,611.9,777.1,560.5,777.1,507.3z M466,864.9v-32.7h93
		v32.7H466z M665,611c-20.4,29.9-48.6,53.1-81.5,67L559,688.2v64h-93v-63.9L441.5,678c-33-13.9-61.3-37.1-81.8-67
		c-21.1-30.8-32.3-66.6-32.3-103.6c0-101.7,82.9-184.5,184.9-184.5c101.9,0,184.8,82.7,184.8,184.4C697.1,544.3,686,580.2,665,611z"
		/>
	<rect x="472" y="80" class="st0" width="80" height="109.8"/>
	<rect x="84.7" y="467.3" class="st0" width="109.8" height="80"/>
	<rect x="829.5" y="467.3" class="st0" width="109.8" height="80"/>
	
		<rect x="193.7" y="730.8" transform="matrix(0.7076 -0.7066 0.7066 0.7076 -471.9498 401.0218)" class="st0" width="109.8" height="80"/>
	
		<rect x="720.4" y="204.1" transform="matrix(0.7076 -0.7066 0.7066 0.7076 54.2349 619.2174)" class="st0" width="109.8" height="80"/>
	
		<rect x="208.6" y="189.1" transform="matrix(0.7066 -0.7076 0.7076 0.7066 -99.7255 247.5112)" class="st0" width="80" height="109.8"/>
	
		<rect x="735.4" y="715.7" transform="matrix(0.7066 -0.7076 0.7076 0.7066 -317.7917 774.7492)" class="st0" width="80" height="109.8"/>
</g>
</svg>
