<?xml version="1.0" encoding="utf-8"?>
<!-- Generator: Adobe Illustrator 21.1.0, SVG Export Plug-In . SVG Version: 6.00 Build 0)  -->
<svg version="1.1" id="Layer_1" xmlns="http://www.w3.org/2000/svg" xmlns:xlink="http://www.w3.org/1999/xlink" x="0px" y="0px"
	 viewBox="0 0 1024 1016.7" style="enable-background:new 0 0 1024 1016.7;" xml:space="preserve">
<style type="text/css">
	.st0{fill:#FFFFFF;}
</style>
<path class="st0" d="M796,943.7c-38,0.1-74.5-14.9-101.4-41.9L411.5,618.7c-148.5,36.6-298.6-54.2-335.1-202.7
	c-12.8-52.1-10.2-106.7,7.4-157.3l21.2-60.8l160.9,160.9c11.8,11.8,27.8,18.3,44.5,18.2h0.5c34.6-0.5,62.3-28.9,61.8-63.5
	c-0.2-16.3-6.8-31.8-18.2-43.4l-161-160.8l60.8-21.2c144.5-50.3,302.4,26,352.7,170.4c17.6,50.6,20.2,105.3,7.4,157.3L897.4,699
	c56,55.9,56,146.7,0.1,202.6C870.6,928.6,834.1,943.7,796,943.7z M433.7,526.8l318,318c24.8,24.2,64.5,23.7,88.6-1.1
	c23.7-24.3,23.7-63.2,0-87.5l-318-318l8.3-23.9c35.7-102.3-18.3-214.1-120.6-249.8c-18.7-6.5-38.3-10.2-58.1-10.8l59.5,59.4
	c56,55.9,56.1,146.6,0.2,202.6c-26.6,26.7-62.6,41.8-100.3,42.1h-1.1c-38.1,0.2-74.7-14.9-101.6-41.9l-59.5-59.5
	c0.4,12,1.9,24,4.5,35.8c23.4,105.8,128.1,172.7,234,149.3c7.5-1.7,14.9-3.8,22.2-6.3L433.7,526.8z"/>
</svg>
